<svg xmlns="http://www.w3.org/2000/svg" width="1080" height="1083" viewBox="0 0 1080 1083" version="1.1"><path d="M 382.667 282.667 C 381.683 283.651, 381.885 339.270, 382.878 340.837 C 383.561 341.915, 388.849 342.099, 410.113 341.784 C 424.626 341.569, 437.291 341.030, 438.259 340.586 C 439.226 340.143, 440.351 338.592, 440.759 337.140 C 441.166 335.688, 441.500 323.046, 441.500 309.047 L 441.500 283.593 439 282.896 C 435.779 281.998, 383.548 281.785, 382.667 282.667 M 688 282.888 L 685.500 283.593 685.500 310.748 C 685.500 329.569, 685.846 338.248, 686.628 339.029 C 688.910 341.308, 696.035 341.953, 719.215 341.976 C 741.774 341.999, 742.981 341.904, 743.981 340.036 C 744.662 338.762, 744.938 328.307, 744.766 310.286 L 744.500 282.500 717.500 282.342 C 702.650 282.255, 689.375 282.501, 688 282.888 M 383.135 358.337 C 381.533 360.268, 381.483 414.672, 383.082 416.599 C 384.448 418.245, 435.490 417.878, 438.628 416.199 C 441.455 414.686, 441.981 409.467, 441.991 382.773 L 442 361.046 439.296 359.273 C 436.919 357.714, 433.438 357.460, 410.488 357.166 C 388.188 356.881, 384.202 357.052, 383.135 358.337 M 614.699 357.966 C 612.609 358.371, 610.450 359.150, 609.902 359.698 C 609.275 360.325, 609.016 370.758, 609.203 387.884 C 609.439 409.470, 609.780 415.248, 610.858 415.914 C 612.234 416.763, 664.512 418.024, 666.673 417.260 C 667.318 417.032, 668.191 416.093, 668.614 415.173 C 669.529 413.182, 670.432 364.856, 669.614 361.600 C 668.585 357.500, 665.373 356.993, 641.203 357.115 C 628.716 357.178, 616.790 357.561, 614.699 357.966 M 382.634 434.511 C 382.285 435.420, 382 448.672, 382 463.959 C 382 484.983, 382.305 492.005, 383.250 492.780 C 385.039 494.247, 435.823 493.741, 438.606 492.229 C 441.456 490.679, 441.981 485.514, 441.991 458.905 C 442 438.221, 441.911 437.230, 439.897 435.405 C 437.957 433.648, 435.680 433.475, 410.531 433.180 C 385.921 432.890, 383.206 433.020, 382.634 434.511 M 535.250 434.522 C 533.012 436.105, 533 436.256, 533 462.985 C 533 486.081, 533.221 490.078, 534.571 491.429 C 536.300 493.158, 536.508 493.169, 569.257 493.319 C 587.731 493.404, 590.206 493.223, 591.757 491.673 C 593.309 490.123, 593.534 487.054, 593.810 463.716 C 594.070 441.803, 593.878 437.172, 592.642 435.500 C 591.237 433.599, 589.829 433.486, 564.332 433.216 C 541.101 432.969, 537.198 433.145, 535.250 434.522 M 382.711 509.623 C 381.444 510.889, 381.863 567.797, 383.144 568.589 C 384.995 569.733, 435.892 569.007, 438.543 567.798 C 439.834 567.210, 441.136 566.089, 441.436 565.307 C 441.736 564.525, 441.873 552.451, 441.741 538.477 C 441.524 515.622, 441.321 512.890, 439.716 511.285 C 438.106 509.675, 435.266 509.471, 410.677 509.206 C 395.686 509.044, 383.102 509.232, 382.711 509.623 M 458.557 511.223 C 457.244 513.096, 457 517.543, 457 539.568 C 457 563.605, 457.146 565.822, 458.829 567.345 C 460.433 568.797, 463.901 569, 487.138 569 C 508.428 569, 513.998 568.722, 515.559 567.581 C 517.387 566.244, 517.512 564.611, 517.702 539.533 C 517.894 514.308, 517.802 512.802, 515.952 510.952 C 514.113 509.113, 512.447 509, 487.057 509 C 460.348 509, 460.100 509.019, 458.557 511.223 M 383.330 585.500 C 382.223 586.312, 382.017 591.941, 382.234 615.500 L 382.500 644.500 407.500 644.791 C 421.250 644.951, 433.948 644.821, 435.718 644.502 C 441.899 643.387, 442 642.995, 442 620.075 C 442 608.645, 441.714 596.557, 441.364 593.212 C 440.805 587.862, 440.414 587.005, 438.114 586.092 C 434.612 584.702, 385.147 584.167, 383.330 585.500 M 534.655 586.829 C 533.203 588.434, 533 591.903, 533 615.174 C 533 639.592, 533.145 641.821, 534.829 643.345 C 536.434 644.798, 539.914 645, 563.329 645 C 589.115 645, 590.070 644.930, 592.106 642.894 C 594.160 640.840, 594.204 640.136, 593.856 614.547 C 593.580 594.189, 593.192 587.937, 592.128 586.654 C 590.912 585.190, 587.634 585, 563.533 585 C 538.430 585, 536.181 585.142, 534.655 586.829 M 383.238 661.214 C 381.944 662.772, 381.313 716.046, 382.550 719.269 C 383.155 720.846, 385.402 720.998, 407.857 720.976 C 432.541 720.952, 439.512 720.293, 441.191 717.822 C 441.686 717.095, 441.958 704.660, 441.795 690.169 C 441.518 665.446, 441.382 663.752, 439.559 662.419 C 438.021 661.295, 433.016 661, 415.448 661 C 403.255 661, 391.286 660.727, 388.851 660.393 C 385.644 659.954, 384.096 660.180, 383.238 661.214 M 636.500 660.730 C 613.464 660.987, 612.430 661.083, 610.750 663.110 C 609.181 665.003, 609 667.943, 609 691.488 C 609 714.687, 609.193 717.915, 610.652 719.128 C 611.939 720.197, 618.212 720.568, 639.092 720.809 C 665.354 721.112, 665.924 721.076, 668.026 718.974 C 670.128 716.872, 670.163 716.313, 669.835 690.326 C 669.501 663.863, 669.496 663.818, 667.139 661.911 C 665.841 660.860, 663.816 660.104, 662.639 660.231 C 661.463 660.358, 649.700 660.583, 636.500 660.730 M 383.185 737.277 C 382.278 738.370, 382.036 745.967, 382.234 767.121 L 382.500 795.500 410.286 795.766 C 429.107 795.946, 438.737 795.676, 440.132 794.929 C 442.149 793.850, 442.183 793.271, 441.777 767.663 C 441.549 753.274, 441.021 740.747, 440.604 739.827 C 440.187 738.907, 439.093 737.813, 438.173 737.396 C 437.253 736.979, 424.778 736.451, 410.451 736.224 C 388.427 735.874, 384.214 736.037, 383.185 737.277 M 691.699 736.966 C 689.609 737.371, 687.359 738.241, 686.699 738.899 C 685.843 739.755, 685.412 747.777, 685.191 766.981 C 684.890 793.107, 684.939 793.897, 686.905 794.949 C 688.253 795.671, 698.192 795.943, 716.714 795.766 L 744.500 795.500 744.766 767.714 C 744.938 749.693, 744.662 739.238, 743.981 737.964 C 742.979 736.092, 741.823 736.005, 719.215 736.115 C 706.172 736.178, 693.790 736.561, 691.699 736.966" stroke="none" fill="#e5741c" fill-rule="evenodd"/><path d="M 522 1.126 C 496.386 2.123, 481.826 3.520, 454 7.653 C 437.961 10.035, 413.041 15.328, 399 19.335 C 395.975 20.198, 391.250 21.545, 388.500 22.328 C 381.482 24.326, 361.290 30.892, 356.500 32.734 C 354.300 33.580, 351.150 34.818, 349.500 35.486 C 347.850 36.154, 344.925 37.286, 343 38.001 C 341.075 38.717, 336.656 40.584, 333.180 42.151 C 329.704 43.718, 326.698 45, 326.500 45 C 324.613 45, 287.763 63.116, 279.232 68.237 C 275.785 70.307, 272.741 72, 272.466 72 C 271.502 72, 246.496 87.397, 246.167 88.194 C 245.983 88.637, 245.397 89, 244.864 89 C 242.447 89, 200.487 120.007, 191.993 128.070 C 191.164 128.856, 187.789 131.737, 184.493 134.470 C 178.078 139.790, 145.344 172.188, 137.955 180.530 C 128.478 191.229, 123.017 197.691, 119.387 202.500 C 117.311 205.250, 115.310 207.725, 114.939 208 C 114.333 208.450, 96.331 232.994, 93.224 237.606 C 87.767 245.708, 78.677 259.867, 77.885 261.500 C 77.351 262.600, 76.371 264.400, 75.707 265.500 C 68.432 277.555, 64.101 285.500, 56.629 300.500 C 48.813 316.193, 43.441 327.775, 40.862 334.500 C 39.808 337.250, 38.561 340.400, 38.092 341.500 C 37.623 342.600, 36.511 345.413, 35.620 347.750 C 34.729 350.087, 33.347 353.688, 32.548 355.750 C 31.750 357.813, 30.329 361.975, 29.392 365 C 28.455 368.025, 27.356 371.400, 26.950 372.500 C 25.375 376.766, 23.161 383.757, 21.566 389.500 C 20.649 392.800, 19.247 397.689, 18.449 400.365 C 17.652 403.040, 17 406.051, 17 407.056 C 17 408.060, 16.594 409.133, 16.098 409.439 C 15.603 409.746, 14.883 412.698, 14.500 416 C 14.117 419.302, 13.397 422.254, 12.902 422.561 C 12.406 422.867, 12 424.412, 12 425.994 C 12 427.576, 11.519 430.134, 10.932 431.679 C 10.344 433.224, 9.450 437.191, 8.944 440.494 C 8.438 443.797, 7.320 450.775, 6.460 456 C 1.763 484.538, 0.150 506.548, 0.157 542 C 0.165 582.827, 1.721 600.931, 8.863 643.301 C 10.077 650.502, 11.969 658.824, 13.022 661.597 C 13.460 662.751, 14.136 666.244, 14.526 669.360 C 14.915 672.477, 15.631 675.272, 16.117 675.572 C 16.603 675.872, 17 676.940, 17 677.944 C 17 678.949, 17.652 681.960, 18.449 684.635 C 19.247 687.311, 20.649 692.200, 21.566 695.500 C 23.668 703.069, 25.946 710.048, 26.962 712.033 C 27.393 712.876, 28.085 715.111, 28.500 717 C 28.915 718.889, 29.605 721.124, 30.034 721.967 C 30.463 722.810, 32.283 727.550, 34.077 732.500 C 35.872 737.450, 37.714 741.927, 38.170 742.450 C 38.627 742.972, 39 744.029, 39 744.799 C 39 745.568, 39.641 747.616, 40.425 749.349 C 43.424 755.977, 46.826 763.709, 49.071 769 C 57.396 788.612, 79.330 826.956, 95.943 850.940 C 102.639 860.608, 106.040 865.182, 118.761 881.626 C 137.529 905.889, 172.715 941.180, 200.500 963.610 C 220.397 979.673, 251.914 1001.487, 267.899 1010.260 C 270.980 1011.950, 276.200 1014.839, 279.500 1016.680 C 286.552 1020.613, 321.504 1038, 322.359 1038 C 322.681 1038, 325.320 1039.109, 328.223 1040.465 C 336.807 1044.474, 363.512 1054.368, 377.500 1058.721 C 398.136 1065.144, 401.126 1066, 402.915 1066 C 403.842 1066, 405.027 1066.400, 405.550 1066.889 C 406.072 1067.378, 408.975 1068.242, 412 1068.808 C 415.025 1069.375, 420.650 1070.573, 424.500 1071.470 C 437.803 1074.569, 455.215 1077.667, 467 1079.031 C 471.675 1079.572, 479.325 1080.574, 484 1081.258 C 495.643 1082.959, 587.612 1082.995, 597.500 1081.301 C 601.350 1080.642, 608.775 1079.630, 614 1079.053 C 622.587 1078.104, 626.977 1077.403, 645 1074.101 C 664.312 1070.564, 705.799 1059.407, 712.033 1056.074 C 712.876 1055.623, 715.111 1054.915, 717 1054.500 C 718.889 1054.085, 721.124 1053.391, 721.967 1052.958 C 722.810 1052.525, 727.325 1050.758, 732 1049.033 C 736.675 1047.308, 741.281 1045.470, 742.236 1044.948 C 743.191 1044.427, 744.420 1044, 744.967 1044 C 745.514 1044, 749.683 1042.259, 754.231 1040.131 C 758.779 1038.003, 764.975 1035.206, 768 1033.917 C 778.008 1029.650, 804.334 1015.929, 813.230 1010.342 C 815.282 1009.054, 817.230 1008, 817.561 1008 C 818.163 1008, 820.033 1006.811, 838.500 994.683 C 888.753 961.681, 936.362 917.171, 971.794 870.064 C 984.349 853.373, 1010 814.687, 1010 812.445 C 1010 812.178, 1011.205 810.057, 1012.677 807.730 C 1015.757 802.865, 1031.339 772.180, 1034.884 764 C 1036.195 760.975, 1037.850 757.150, 1038.563 755.500 C 1039.912 752.378, 1045.047 739.429, 1047.683 732.500 C 1048.520 730.300, 1049.552 727.810, 1049.976 726.967 C 1050.399 726.124, 1051.080 723.874, 1051.488 721.967 C 1051.897 720.060, 1052.550 718.050, 1052.940 717.500 C 1053.330 716.950, 1054.482 713.575, 1055.500 710 C 1056.518 706.425, 1057.670 703.050, 1058.060 702.500 C 1058.450 701.950, 1059.248 699.475, 1059.833 697 C 1060.419 694.525, 1061.579 690.025, 1062.411 687 C 1070.330 658.226, 1075.546 631.033, 1079.195 599.500 C 1080.842 585.262, 1080.806 497.619, 1079.147 484.500 C 1076.819 466.084, 1075.155 455.415, 1071.038 432.500 C 1070.445 429.200, 1069.567 425.375, 1069.088 424 C 1068.608 422.625, 1067.416 417.675, 1066.439 413 C 1065.462 408.325, 1064.331 404.050, 1063.925 403.500 C 1063.519 402.950, 1062.868 400.357, 1062.478 397.738 C 1062.088 395.118, 1061.371 392.729, 1060.885 392.429 C 1060.398 392.128, 1060 390.983, 1060 389.884 C 1060 387.751, 1051.595 361.673, 1049.970 358.764 C 1049.437 357.809, 1049 356.527, 1049 355.915 C 1049 355.303, 1048.378 353.384, 1047.617 351.651 C 1046.857 349.918, 1045.661 346.925, 1044.959 345 C 1043.795 341.804, 1042.802 339.397, 1038.360 329 C 1037.538 327.075, 1036.482 324.600, 1036.015 323.500 C 1033.423 317.399, 1016.628 283.746, 1014.055 279.500 C 1012.389 276.750, 1010.714 273.825, 1010.332 273 C 1009.346 270.868, 992.742 243.603, 992.063 243 C 991.753 242.725, 989.250 239.125, 986.500 235 C 983.750 230.875, 981.251 227.275, 980.947 227 C 980.643 226.725, 979.436 224.925, 978.263 223 C 977.091 221.075, 975.300 218.600, 974.283 217.500 C 973.265 216.400, 969.697 211.900, 966.354 207.500 C 947.401 182.560, 906.192 140.512, 884.062 123.534 C 882.653 122.453, 881.275 121.311, 881 120.996 C 880.725 120.680, 877.575 118.190, 874 115.461 C 870.425 112.732, 867.275 110.263, 867 109.974 C 864.647 107.499, 833.587 86, 832.365 86 C 832.091 86, 830.434 84.937, 828.683 83.637 C 826.005 81.648, 815.732 75.590, 800.151 66.810 C 795.631 64.263, 770.370 51.593, 766 49.681 C 764.075 48.838, 760.025 47.050, 757 45.706 C 753.975 44.363, 749.025 42.258, 746 41.028 C 742.975 39.799, 739.600 38.394, 738.500 37.906 C 730.020 34.144, 700.219 24.145, 686.500 20.457 C 681 18.979, 674.925 17.336, 673 16.807 C 663.618 14.225, 639.899 9.473, 627 7.591 C 599.988 3.651, 599.655 3.615, 570.500 1.539 C 557.824 0.636, 538.760 0.474, 522 1.126 M 382.667 282.667 C 381.683 283.651, 381.885 339.270, 382.878 340.837 C 383.561 341.915, 388.849 342.099, 410.113 341.784 C 424.626 341.569, 437.291 341.030, 438.259 340.586 C 439.226 340.143, 440.351 338.592, 440.759 337.140 C 441.166 335.688, 441.500 323.046, 441.500 309.047 L 441.500 283.593 439 282.896 C 435.779 281.998, 383.548 281.785, 382.667 282.667 M 688 282.888 L 685.500 283.593 685.500 310.748 C 685.500 329.569, 685.846 338.248, 686.628 339.029 C 688.910 341.308, 696.035 341.953, 719.215 341.976 C 741.774 341.999, 742.981 341.904, 743.981 340.036 C 744.662 338.762, 744.938 328.307, 744.766 310.286 L 744.500 282.500 717.500 282.342 C 702.650 282.255, 689.375 282.501, 688 282.888 M 383.135 358.337 C 381.533 360.268, 381.483 414.672, 383.082 416.599 C 384.448 418.245, 435.490 417.878, 438.628 416.199 C 441.455 414.686, 441.981 409.467, 441.991 382.773 L 442 361.046 439.296 359.273 C 436.919 357.714, 433.438 357.460, 410.488 357.166 C 388.188 356.881, 384.202 357.052, 383.135 358.337 M 614.699 357.966 C 612.609 358.371, 610.450 359.150, 609.902 359.698 C 609.275 360.325, 609.016 370.758, 609.203 387.884 C 609.439 409.470, 609.780 415.248, 610.858 415.914 C 612.234 416.763, 664.512 418.024, 666.673 417.260 C 667.318 417.032, 668.191 416.093, 668.614 415.173 C 669.529 413.182, 670.432 364.856, 669.614 361.600 C 668.585 357.500, 665.373 356.993, 641.203 357.115 C 628.716 357.178, 616.790 357.561, 614.699 357.966 M 382.634 434.511 C 382.285 435.420, 382 448.672, 382 463.959 C 382 484.983, 382.305 492.005, 383.250 492.780 C 385.039 494.247, 435.823 493.741, 438.606 492.229 C 441.456 490.679, 441.981 485.514, 441.991 458.905 C 442 438.221, 441.911 437.230, 439.897 435.405 C 437.957 433.648, 435.680 433.475, 410.531 433.180 C 385.921 432.890, 383.206 433.020, 382.634 434.511 M 535.250 434.522 C 533.012 436.105, 533 436.256, 533 462.985 C 533 486.081, 533.221 490.078, 534.571 491.429 C 536.300 493.158, 536.508 493.169, 569.257 493.319 C 587.731 493.404, 590.206 493.223, 591.757 491.673 C 593.309 490.123, 593.534 487.054, 593.810 463.716 C 594.070 441.803, 593.878 437.172, 592.642 435.500 C 591.237 433.599, 589.829 433.486, 564.332 433.216 C 541.101 432.969, 537.198 433.145, 535.250 434.522 M 382.711 509.623 C 381.444 510.889, 381.863 567.797, 383.144 568.589 C 384.995 569.733, 435.892 569.007, 438.543 567.798 C 439.834 567.210, 441.136 566.089, 441.436 565.307 C 441.736 564.525, 441.873 552.451, 441.741 538.477 C 441.524 515.622, 441.321 512.890, 439.716 511.285 C 438.106 509.675, 435.266 509.471, 410.677 509.206 C 395.686 509.044, 383.102 509.232, 382.711 509.623 M 458.557 511.223 C 457.244 513.096, 457 517.543, 457 539.568 C 457 563.605, 457.146 565.822, 458.829 567.345 C 460.433 568.797, 463.901 569, 487.138 569 C 508.428 569, 513.998 568.722, 515.559 567.581 C 517.387 566.244, 517.512 564.611, 517.702 539.533 C 517.894 514.308, 517.802 512.802, 515.952 510.952 C 514.113 509.113, 512.447 509, 487.057 509 C 460.348 509, 460.100 509.019, 458.557 511.223 M 0.447 542 C 0.447 559.875, 0.582 567.188, 0.748 558.250 C 0.914 549.313, 0.914 534.688, 0.748 525.750 C 0.582 516.813, 0.447 524.125, 0.447 542 M 383.330 585.500 C 382.223 586.312, 382.017 591.941, 382.234 615.500 L 382.500 644.500 407.500 644.791 C 421.250 644.951, 433.948 644.821, 435.718 644.502 C 441.899 643.387, 442 642.995, 442 620.075 C 442 608.645, 441.714 596.557, 441.364 593.212 C 440.805 587.862, 440.414 587.005, 438.114 586.092 C 434.612 584.702, 385.147 584.167, 383.330 585.500 M 534.655 586.829 C 533.203 588.434, 533 591.903, 533 615.174 C 533 639.592, 533.145 641.821, 534.829 643.345 C 536.434 644.798, 539.914 645, 563.329 645 C 589.115 645, 590.070 644.930, 592.106 642.894 C 594.160 640.840, 594.204 640.136, 593.856 614.547 C 593.580 594.189, 593.192 587.937, 592.128 586.654 C 590.912 585.190, 587.634 585, 563.533 585 C 538.430 585, 536.181 585.142, 534.655 586.829 M 383.238 661.214 C 381.944 662.772, 381.313 716.046, 382.550 719.269 C 383.155 720.846, 385.402 720.998, 407.857 720.976 C 432.541 720.952, 439.512 720.293, 441.191 717.822 C 441.686 717.095, 441.958 704.660, 441.795 690.169 C 441.518 665.446, 441.382 663.752, 439.559 662.419 C 438.021 661.295, 433.016 661, 415.448 661 C 403.255 661, 391.286 660.727, 388.851 660.393 C 385.644 659.954, 384.096 660.180, 383.238 661.214 M 636.500 660.730 C 613.464 660.987, 612.430 661.083, 610.750 663.110 C 609.181 665.003, 609 667.943, 609 691.488 C 609 714.687, 609.193 717.915, 610.652 719.128 C 611.939 720.197, 618.212 720.568, 639.092 720.809 C 665.354 721.112, 665.924 721.076, 668.026 718.974 C 670.128 716.872, 670.163 716.313, 669.835 690.326 C 669.501 663.863, 669.496 663.818, 667.139 661.911 C 665.841 660.860, 663.816 660.104, 662.639 660.231 C 661.463 660.358, 649.700 660.583, 636.500 660.730 M 383.185 737.277 C 382.278 738.370, 382.036 745.967, 382.234 767.121 L 382.500 795.500 410.286 795.766 C 429.107 795.946, 438.737 795.676, 440.132 794.929 C 442.149 793.850, 442.183 793.271, 441.777 767.663 C 441.549 753.274, 441.021 740.747, 440.604 739.827 C 440.187 738.907, 439.093 737.813, 438.173 737.396 C 437.253 736.979, 424.778 736.451, 410.451 736.224 C 388.427 735.874, 384.214 736.037, 383.185 737.277 M 691.699 736.966 C 689.609 737.371, 687.359 738.241, 686.699 738.899 C 685.843 739.755, 685.412 747.777, 685.191 766.981 C 684.890 793.107, 684.939 793.897, 686.905 794.949 C 688.253 795.671, 698.192 795.943, 716.714 795.766 L 744.500 795.500 744.766 767.714 C 744.938 749.693, 744.662 739.238, 743.981 737.964 C 742.979 736.092, 741.823 736.005, 719.215 736.115 C 706.172 736.178, 693.790 736.561, 691.699 736.966" stroke="none" fill="#f3f3f2" fill-rule="evenodd"/></svg>