<svg width="47.5" height="67.5" viewBox="0 0 47.5 67.5" xmlns="http://www.w3.org/2000/svg"><g id="svgGroup" stroke-linecap="round" fill-rule="evenodd" font-size="9pt" stroke="#000000" stroke-width="0.05mm" fill="#f5700a" style="stroke:#000000;stroke-width:0.05mm;fill:#f5700a"><path d="M 37.4 10 L 30.1 10 L 30 10 L 30 10.1 L 30 17.4 L 30 17.5 L 30.1 17.5 L 37.4 17.5 L 37.5 17.5 L 37.5 17.4 L 37.5 10.1 L 37.5 10 L 37.4 10 Z M 7.4 30 L 0.1 30 L 0 30 L 0 30.1 L 0 37.4 L 0 37.5 L 0.1 37.5 L 7.4 37.5 L 7.5 37.5 L 7.5 37.4 L 7.5 30.1 L 7.5 30 L 7.4 30 Z M 17.4 30 L 10.1 30 L 10 30 L 10 30.1 L 10 37.4 L 10 37.5 L 10.1 37.5 L 17.4 37.5 L 17.5 37.5 L 17.5 37.4 L 17.5 30.1 L 17.5 30 L 17.4 30 Z M 37.4 50 L 30.1 50 L 30 50 L 30 50.1 L 30 57.4 L 30 57.5 L 30.1 57.5 L 37.4 57.5 L 37.5 57.5 L 37.5 57.4 L 37.5 50.1 L 37.5 50 L 37.4 50 Z M 7.4 10 L 0.1 10 L 0 10 L 0 10.1 L 0 17.4 L 0 17.5 L 0.1 17.5 L 7.4 17.5 L 7.5 17.5 L 7.5 17.4 L 7.5 10.1 L 7.5 10 L 7.4 10 Z M 7.4 20 L 0.1 20 L 0 20 L 0 20.1 L 0 27.4 L 0 27.5 L 0.1 27.5 L 7.4 27.5 L 7.5 27.5 L 7.5 27.4 L 7.5 20.1 L 7.5 20 L 7.4 20 Z M 27.4 20 L 20.1 20 L 20 20 L 20 20.1 L 20 27.4 L 20 27.5 L 20.1 27.5 L 27.4 27.5 L 27.5 27.5 L 27.5 27.4 L 27.5 20.1 L 27.5 20 L 27.4 20 Z M 7.4 40 L 0.1 40 L 0 40 L 0 40.1 L 0 47.4 L 0 47.5 L 0.1 47.5 L 7.4 47.5 L 7.5 47.5 L 7.5 47.4 L 7.5 40.1 L 7.5 40 L 7.4 40 Z M 27.4 40 L 20.1 40 L 20 40 L 20 40.1 L 20 47.4 L 20 47.5 L 20.1 47.5 L 27.4 47.5 L 27.5 47.5 L 27.5 47.4 L 27.5 40.1 L 27.5 40 L 27.4 40 Z M 7.4 50 L 0.1 50 L 0 50 L 0 50.1 L 0 57.4 L 0 57.5 L 0.1 57.5 L 7.4 57.5 L 7.5 57.5 L 7.5 57.4 L 7.5 50.1 L 7.5 50 L 7.4 50 Z M 7.4 60 L 0.1 60 L 0 60 L 0 60.1 L 0 67.4 L 0 67.5 L 0.1 67.5 L 7.4 67.5 L 7.5 67.5 L 7.5 67.4 L 7.5 60.1 L 7.5 60 L 7.4 60 Z M 47.4 60 L 40.1 60 L 40 60 L 40 60.1 L 40 67.4 L 40 67.5 L 40.1 67.5 L 47.4 67.5 L 47.5 67.5 L 47.5 67.4 L 47.5 60.1 L 47.5 60 L 47.4 60 Z M 7.4 0 L 0.1 0 L 0 0 L 0 0.1 L 0 7.4 L 0 7.5 L 0.1 7.5 L 7.4 7.5 L 7.5 7.5 L 7.5 7.4 L 7.5 0.1 L 7.5 0 L 7.4 0 Z M 47.4 0 L 40.1 0 L 40 0 L 40 0.1 L 40 7.4 L 40 7.5 L 40.1 7.5 L 47.4 7.5 L 47.5 7.5 L 47.5 7.4 L 47.5 0.1 L 47.5 0 L 47.4 0 Z" vector-effect="non-scaling-stroke"/></g></svg>