<svg width="347.5" height="87.5" viewBox="0 0 347.5 87.5" xmlns="http://www.w3.org/2000/svg"><g id="svgGroup" stroke-linecap="round" fill-rule="evenodd" stroke="currentColor" stroke-width="0.10mm" fill="currentColor"><path d="M 337.4 30 L 330.1 30 L 330 30 L 330 30.1 L 330 37.4 L 330 37.5 L 330.1 37.5 L 337.4 37.5 L 337.5 37.5 L 337.5 37.4 L 337.5 30.1 L 337.5 30 L 337.4 30 Z M 37.4 10 L 30.1 10 L 30 10 L 30 10.1 L 30 17.4 L 30 17.5 L 30.1 17.5 L 37.4 17.5 L 37.5 17.5 L 37.5 17.4 L 37.5 10.1 L 37.5 10 L 37.4 10 Z M 7.4 30 L 0.1 30 L 0 30 L 0 30.1 L 0 37.4 L 0 37.5 L 0.1 37.5 L 7.4 37.5 L 7.5 37.5 L 7.5 37.4 L 7.5 30.1 L 7.5 30 L 7.4 30 Z M 17.4 30 L 10.1 30 L 10 30 L 10 30.1 L 10 37.4 L 10 37.5 L 10.1 37.5 L 17.4 37.5 L 17.5 37.5 L 17.5 37.4 L 17.5 30.1 L 17.5 30 L 17.4 30 Z M 37.4 50 L 30.1 50 L 30 50 L 30 50.1 L 30 57.4 L 30 57.5 L 30.1 57.5 L 37.4 57.5 L 37.5 57.5 L 37.5 57.4 L 37.5 50.1 L 37.5 50 L 37.4 50 Z M 97.4 20 L 90.1 20 L 90 20 L 90 20.1 L 90 27.4 L 90 27.5 L 90.1 27.5 L 97.4 27.5 L 97.5 27.5 L 97.5 27.4 L 97.5 20.1 L 97.5 20 L 97.4 20 Z M 67.4 30 L 60.1 30 L 60 30 L 60 30.1 L 60 37.4 L 60 37.5 L 60.1 37.5 L 67.4 37.5 L 67.5 37.5 L 67.5 37.4 L 67.5 30.1 L 67.5 30 L 67.4 30 Z M 77.4 30 L 70.1 30 L 70 30 L 70 30.1 L 70 37.4 L 70 37.5 L 70.1 37.5 L 77.4 37.5 L 77.5 37.5 L 77.5 37.4 L 77.5 30.1 L 77.5 30 L 77.4 30 Z M 107.4 30 L 100.1 30 L 100 30 L 100 30.1 L 100 37.4 L 100 37.5 L 100.1 37.5 L 107.4 37.5 L 107.5 37.5 L 107.5 37.4 L 107.5 30.1 L 107.5 30 L 107.4 30 Z M 157.4 20 L 150.1 20 L 150 20 L 150 20.1 L 150 27.4 L 150 27.5 L 150.1 27.5 L 157.4 27.5 L 157.5 27.5 L 157.5 27.4 L 157.5 20.1 L 157.5 20 L 157.4 20 Z M 127.4 30 L 120.1 30 L 120 30 L 120 30.1 L 120 37.4 L 120 37.5 L 120.1 37.5 L 127.4 37.5 L 127.5 37.5 L 127.5 37.4 L 127.5 30.1 L 127.5 30 L 127.4 30 Z M 167.4 30 L 160.1 30 L 160 30 L 160 30.1 L 160 37.4 L 160 37.5 L 160.1 37.5 L 167.4 37.5 L 167.5 37.5 L 167.5 37.4 L 167.5 30.1 L 167.5 30 L 167.4 30 Z M 157.4 40 L 150.1 40 L 150 40 L 150 40.1 L 150 47.4 L 150 47.5 L 150.1 47.5 L 157.4 47.5 L 157.5 47.5 L 157.5 47.4 L 157.5 40.1 L 157.5 40 L 157.4 40 Z M 157.4 60 L 150.1 60 L 150 60 L 150 60.1 L 150 67.4 L 150 67.5 L 150.1 67.5 L 157.4 67.5 L 157.5 67.5 L 157.5 67.4 L 157.5 60.1 L 157.5 60 L 157.4 60 Z M 217.4 20 L 210.1 20 L 210 20 L 210 20.1 L 210 27.4 L 210 27.5 L 210.1 27.5 L 217.4 27.5 L 217.5 27.5 L 217.5 27.4 L 217.5 20.1 L 217.5 20 L 217.4 20 Z M 187.4 30 L 180.1 30 L 180 30 L 180 30.1 L 180 37.4 L 180 37.5 L 180.1 37.5 L 187.4 37.5 L 187.5 37.5 L 187.5 37.4 L 187.5 30.1 L 187.5 30 L 187.4 30 Z M 227.4 30 L 220.1 30 L 220 30 L 220 30.1 L 220 37.4 L 220 37.5 L 220.1 37.5 L 227.4 37.5 L 227.5 37.5 L 227.5 37.4 L 227.5 30.1 L 227.5 30 L 227.4 30 Z M 217.4 40 L 210.1 40 L 210 40 L 210 40.1 L 210 47.4 L 210 47.5 L 210.1 47.5 L 217.4 47.5 L 217.5 47.5 L 217.5 47.4 L 217.5 40.1 L 217.5 40 L 217.4 40 Z M 217.4 60 L 210.1 60 L 210 60 L 210 60.1 L 210 67.4 L 210 67.5 L 210.1 67.5 L 217.4 67.5 L 217.5 67.5 L 217.5 67.4 L 217.5 60.1 L 217.5 60 L 217.4 60 Z M 277.4 20 L 270.1 20 L 270 20 L 270 20.1 L 270 27.4 L 270 27.5 L 270.1 27.5 L 277.4 27.5 L 277.5 27.5 L 277.5 27.4 L 277.5 20.1 L 277.5 20 L 277.4 20 Z M 247.4 30 L 240.1 30 L 240 30 L 240 30.1 L 240 37.4 L 240 37.5 L 240.1 37.5 L 247.4 37.5 L 247.5 37.5 L 247.5 37.4 L 247.5 30.1 L 247.5 30 L 247.4 30 Z M 257.4 30 L 250.1 30 L 250 30 L 250 30.1 L 250 37.4 L 250 37.5 L 250.1 37.5 L 257.4 37.5 L 257.5 37.5 L 257.5 37.4 L 257.5 30.1 L 257.5 30 L 257.4 30 Z M 287.4 30 L 280.1 30 L 280 30 L 280 30.1 L 280 37.4 L 280 37.5 L 280.1 37.5 L 287.4 37.5 L 287.5 37.5 L 287.5 37.4 L 287.5 30.1 L 287.5 30 L 287.4 30 Z M 277.4 60 L 270.1 60 L 270 60 L 270 60.1 L 270 67.4 L 270 67.5 L 270.1 67.5 L 277.4 67.5 L 277.5 67.5 L 277.5 67.4 L 277.5 60.1 L 277.5 60 L 277.4 60 Z M 247.4 70 L 240.1 70 L 240 70 L 240 70.1 L 240 77.4 L 240 77.5 L 240.1 77.5 L 247.4 77.5 L 247.5 77.5 L 247.5 77.4 L 247.5 70.1 L 247.5 70 L 247.4 70 Z M 307.4 30 L 300.1 30 L 300 30 L 300 30.1 L 300 37.4 L 300 37.5 L 300.1 37.5 L 307.4 37.5 L 307.5 37.5 L 307.5 37.4 L 307.5 30.1 L 307.5 30 L 307.4 30 Z M 317.4 30 L 310.1 30 L 310 30 L 310 30.1 L 310 37.4 L 310 37.5 L 310.1 37.5 L 317.4 37.5 L 317.5 37.5 L 317.5 37.4 L 317.5 30.1 L 317.5 30 L 317.4 30 Z M 327.4 30 L 320.1 30 L 320 30 L 320 30.1 L 320 37.4 L 320 37.5 L 320.1 37.5 L 327.4 37.5 L 327.5 37.5 L 327.5 37.4 L 327.5 30.1 L 327.5 30 L 327.4 30 Z M 337.4 50 L 330.1 50 L 330 50 L 330 50.1 L 330 57.4 L 330 57.5 L 330.1 57.5 L 337.4 57.5 L 337.5 57.5 L 337.5 57.4 L 337.5 50.1 L 337.5 50 L 337.4 50 Z M 147.4 60 L 140.1 60 L 140 60 L 140 60.1 L 140 67.4 L 140 67.5 L 140.1 67.5 L 147.4 67.5 L 147.5 67.5 L 147.5 67.4 L 147.5 60.1 L 147.5 60 L 147.4 60 Z M 207.4 60 L 200.1 60 L 200 60 L 200 60.1 L 200 67.4 L 200 67.5 L 200.1 67.5 L 207.4 67.5 L 207.5 67.5 L 207.5 67.4 L 207.5 60.1 L 207.5 60 L 207.4 60 Z M 267.4 60 L 260.1 60 L 260 60 L 260 60.1 L 260 67.4 L 260 67.5 L 260.1 67.5 L 267.4 67.5 L 267.5 67.5 L 267.5 67.4 L 267.5 60.1 L 267.5 60 L 267.4 60 Z M 7.4 10 L 0.1 10 L 0 10 L 0 10.1 L 0 17.4 L 0 17.5 L 0.1 17.5 L 7.4 17.5 L 7.5 17.5 L 7.5 17.4 L 7.5 10.1 L 7.5 10 L 7.4 10 Z M 7.4 20 L 0.1 20 L 0 20 L 0 20.1 L 0 27.4 L 0 27.5 L 0.1 27.5 L 7.4 27.5 L 7.5 27.5 L 7.5 27.4 L 7.5 20.1 L 7.5 20 L 7.4 20 Z M 27.4 20 L 20.1 20 L 20 20 L 20 20.1 L 20 27.4 L 20 27.5 L 20.1 27.5 L 27.4 27.5 L 27.5 27.5 L 27.5 27.4 L 27.5 20.1 L 27.5 20 L 27.4 20 Z M 7.4 40 L 0.1 40 L 0 40 L 0 40.1 L 0 47.4 L 0 47.5 L 0.1 47.5 L 7.4 47.5 L 7.5 47.5 L 7.5 47.4 L 7.5 40.1 L 7.5 40 L 7.4 40 Z M 27.4 40 L 20.1 40 L 20 40 L 20 40.1 L 20 47.4 L 20 47.5 L 20.1 47.5 L 27.4 47.5 L 27.5 47.5 L 27.5 47.4 L 27.5 40.1 L 27.5 40 L 27.4 40 Z M 7.4 50 L 0.1 50 L 0 50 L 0 50.1 L 0 57.4 L 0 57.5 L 0.1 57.5 L 7.4 57.5 L 7.5 57.5 L 7.5 57.4 L 7.5 50.1 L 7.5 50 L 7.4 50 Z M 7.4 60 L 0.1 60 L 0 60 L 0 60.1 L 0 67.4 L 0 67.5 L 0.1 67.5 L 7.4 67.5 L 7.5 67.5 L 7.5 67.4 L 7.5 60.1 L 7.5 60 L 7.4 60 Z M 47.4 60 L 40.1 60 L 40 60 L 40 60.1 L 40 67.4 L 40 67.5 L 40.1 67.5 L 47.4 67.5 L 47.5 67.5 L 47.5 67.4 L 47.5 60.1 L 47.5 60 L 47.4 60 Z M 67.4 20 L 60.1 20 L 60 20 L 60 20.1 L 60 27.4 L 60 27.5 L 60.1 27.5 L 67.4 27.5 L 67.5 27.5 L 67.5 27.4 L 67.5 20.1 L 67.5 20 L 67.4 20 Z M 87.4 20 L 80.1 20 L 80 20 L 80 20.1 L 80 27.4 L 80 27.5 L 80.1 27.5 L 87.4 27.5 L 87.5 27.5 L 87.5 27.4 L 87.5 20.1 L 87.5 20 L 87.4 20 Z M 67.4 40 L 60.1 40 L 60 40 L 60 40.1 L 60 47.4 L 60 47.5 L 60.1 47.5 L 67.4 47.5 L 67.5 47.5 L 67.5 47.4 L 67.5 40.1 L 67.5 40 L 67.4 40 Z M 67.4 50 L 60.1 50 L 60 50 L 60 50.1 L 60 57.4 L 60 57.5 L 60.1 57.5 L 67.4 57.5 L 67.5 57.5 L 67.5 57.4 L 67.5 50.1 L 67.5 50 L 67.4 50 Z M 67.4 60 L 60.1 60 L 60 60 L 60 60.1 L 60 67.4 L 60 67.5 L 60.1 67.5 L 67.4 67.5 L 67.5 67.5 L 67.5 67.4 L 67.5 60.1 L 67.5 60 L 67.4 60 Z M 137.4 20 L 130.1 20 L 130 20 L 130 20.1 L 130 27.4 L 130 27.5 L 130.1 27.5 L 137.4 27.5 L 137.5 27.5 L 137.5 27.4 L 137.5 20.1 L 137.5 20 L 137.4 20 Z M 147.4 20 L 140.1 20 L 140 20 L 140 20.1 L 140 27.4 L 140 27.5 L 140.1 27.5 L 147.4 27.5 L 147.5 27.5 L 147.5 27.4 L 147.5 20.1 L 147.5 20 L 147.4 20 Z M 127.4 40 L 120.1 40 L 120 40 L 120 40.1 L 120 47.4 L 120 47.5 L 120.1 47.5 L 127.4 47.5 L 127.5 47.5 L 127.5 47.4 L 127.5 40.1 L 127.5 40 L 127.4 40 Z M 137.4 40 L 130.1 40 L 130 40 L 130 40.1 L 130 47.4 L 130 47.5 L 130.1 47.5 L 137.4 47.5 L 137.5 47.5 L 137.5 47.4 L 137.5 40.1 L 137.5 40 L 137.4 40 Z M 147.4 40 L 140.1 40 L 140 40 L 140 40.1 L 140 47.4 L 140 47.5 L 140.1 47.5 L 147.4 47.5 L 147.5 47.5 L 147.5 47.4 L 147.5 40.1 L 147.5 40 L 147.4 40 Z M 167.4 40 L 160.1 40 L 160 40 L 160 40.1 L 160 47.4 L 160 47.5 L 160.1 47.5 L 167.4 47.5 L 167.5 47.5 L 167.5 47.4 L 167.5 40.1 L 167.5 40 L 167.4 40 Z M 127.4 50 L 120.1 50 L 120 50 L 120 50.1 L 120 57.4 L 120 57.5 L 120.1 57.5 L 127.4 57.5 L 127.5 57.5 L 127.5 57.4 L 127.5 50.1 L 127.5 50 L 127.4 50 Z M 137.4 60 L 130.1 60 L 130 60 L 130 60.1 L 130 67.4 L 130 67.5 L 130.1 67.5 L 137.4 67.5 L 137.5 67.5 L 137.5 67.4 L 137.5 60.1 L 137.5 60 L 137.4 60 Z M 197.4 20 L 190.1 20 L 190 20 L 190 20.1 L 190 27.4 L 190 27.5 L 190.1 27.5 L 197.4 27.5 L 197.5 27.5 L 197.5 27.4 L 197.5 20.1 L 197.5 20 L 197.4 20 Z M 207.4 20 L 200.1 20 L 200 20 L 200 20.1 L 200 27.4 L 200 27.5 L 200.1 27.5 L 207.4 27.5 L 207.5 27.5 L 207.5 27.4 L 207.5 20.1 L 207.5 20 L 207.4 20 Z M 187.4 40 L 180.1 40 L 180 40 L 180 40.1 L 180 47.4 L 180 47.5 L 180.1 47.5 L 187.4 47.5 L 187.5 47.5 L 187.5 47.4 L 187.5 40.1 L 187.5 40 L 187.4 40 Z M 197.4 40 L 190.1 40 L 190 40 L 190 40.1 L 190 47.4 L 190 47.5 L 190.1 47.5 L 197.4 47.5 L 197.5 47.5 L 197.5 47.4 L 197.5 40.1 L 197.5 40 L 197.4 40 Z M 207.4 40 L 200.1 40 L 200 40 L 200 40.1 L 200 47.4 L 200 47.5 L 200.1 47.5 L 207.4 47.5 L 207.5 47.5 L 207.5 47.4 L 207.5 40.1 L 207.5 40 L 207.4 40 Z M 227.4 40 L 220.1 40 L 220 40 L 220 40.1 L 220 47.4 L 220 47.5 L 220.1 47.5 L 227.4 47.5 L 227.5 47.5 L 227.5 47.4 L 227.5 40.1 L 227.5 40 L 227.4 40 Z M 187.4 50 L 180.1 50 L 180 50 L 180 50.1 L 180 57.4 L 180 57.5 L 180.1 57.5 L 187.4 57.5 L 187.5 57.5 L 187.5 57.4 L 187.5 50.1 L 187.5 50 L 187.4 50 Z M 197.4 60 L 190.1 60 L 190 60 L 190 60.1 L 190 67.4 L 190 67.5 L 190.1 67.5 L 197.4 67.5 L 197.5 67.5 L 197.5 67.4 L 197.5 60.1 L 197.5 60 L 197.4 60 Z M 247.4 20 L 240.1 20 L 240 20 L 240 20.1 L 240 27.4 L 240 27.5 L 240.1 27.5 L 247.4 27.5 L 247.5 27.5 L 247.5 27.4 L 247.5 20.1 L 247.5 20 L 247.4 20 Z M 267.4 20 L 260.1 20 L 260 20 L 260 20.1 L 260 27.4 L 260 27.5 L 260.1 27.5 L 267.4 27.5 L 267.5 27.5 L 267.5 27.4 L 267.5 20.1 L 267.5 20 L 267.4 20 Z M 247.4 40 L 240.1 40 L 240 40 L 240 40.1 L 240 47.4 L 240 47.5 L 240.1 47.5 L 247.4 47.5 L 247.5 47.5 L 247.5 47.4 L 247.5 40.1 L 247.5 40 L 247.4 40 Z M 287.4 40 L 280.1 40 L 280 40 L 280 40.1 L 280 47.4 L 280 47.5 L 280.1 47.5 L 287.4 47.5 L 287.5 47.5 L 287.5 47.4 L 287.5 40.1 L 287.5 40 L 287.4 40 Z M 247.4 50 L 240.1 50 L 240 50 L 240 50.1 L 240 57.4 L 240 57.5 L 240.1 57.5 L 247.4 57.5 L 247.5 57.5 L 247.5 57.4 L 247.5 50.1 L 247.5 50 L 247.4 50 Z M 257.4 50 L 250.1 50 L 250 50 L 250 50.1 L 250 57.4 L 250 57.5 L 250.1 57.5 L 257.4 57.5 L 257.5 57.5 L 257.5 57.4 L 257.5 50.1 L 257.5 50 L 257.4 50 Z M 287.4 50 L 280.1 50 L 280 50 L 280 50.1 L 280 57.4 L 280 57.5 L 280.1 57.5 L 287.4 57.5 L 287.5 57.5 L 287.5 57.4 L 287.5 50.1 L 287.5 50 L 287.4 50 Z M 247.4 60 L 240.1 60 L 240 60 L 240 60.1 L 240 67.4 L 240 67.5 L 240.1 67.5 L 247.4 67.5 L 247.5 67.5 L 247.5 67.4 L 247.5 60.1 L 247.5 60 L 247.4 60 Z M 247.4 80 L 240.1 80 L 240 80 L 240 80.1 L 240 87.4 L 240 87.5 L 240.1 87.5 L 247.4 87.5 L 247.5 87.5 L 247.5 87.4 L 247.5 80.1 L 247.5 80 L 247.4 80 Z M 307.4 10 L 300.1 10 L 300 10 L 300 10.1 L 300 17.4 L 300 17.5 L 300.1 17.5 L 307.4 17.5 L 307.5 17.5 L 307.5 17.4 L 307.5 10.1 L 307.5 10 L 307.4 10 Z M 347.4 10 L 340.1 10 L 340 10 L 340 10.1 L 340 17.4 L 340 17.5 L 340.1 17.5 L 347.4 17.5 L 347.5 17.5 L 347.5 17.4 L 347.5 10.1 L 347.5 10 L 347.4 10 Z M 307.4 20 L 300.1 20 L 300 20 L 300 20.1 L 300 27.4 L 300 27.5 L 300.1 27.5 L 307.4 27.5 L 307.5 27.5 L 307.5 27.4 L 307.5 20.1 L 307.5 20 L 307.4 20 Z M 347.4 20 L 340.1 20 L 340 20 L 340 20.1 L 340 27.4 L 340 27.5 L 340.1 27.5 L 347.4 27.5 L 347.5 27.5 L 347.5 27.4 L 347.5 20.1 L 347.5 20 L 347.4 20 Z M 307.4 40 L 300.1 40 L 300 40 L 300 40.1 L 300 47.4 L 300 47.5 L 300.1 47.5 L 307.4 47.5 L 307.5 47.5 L 307.5 47.4 L 307.5 40.1 L 307.5 40 L 307.4 40 Z M 327.4 40 L 320.1 40 L 320 40 L 320 40.1 L 320 47.4 L 320 47.5 L 320.1 47.5 L 327.4 47.5 L 327.5 47.5 L 327.5 47.4 L 327.5 40.1 L 327.5 40 L 327.4 40 Z M 307.4 50 L 300.1 50 L 300 50 L 300 50.1 L 300 57.4 L 300 57.5 L 300.1 57.5 L 307.4 57.5 L 307.5 57.5 L 307.5 57.4 L 307.5 50.1 L 307.5 50 L 307.4 50 Z M 307.4 60 L 300.1 60 L 300 60 L 300 60.1 L 300 67.4 L 300 67.5 L 300.1 67.5 L 307.4 67.5 L 307.5 67.5 L 307.5 67.4 L 307.5 60.1 L 307.5 60 L 307.4 60 Z M 347.4 60 L 340.1 60 L 340 60 L 340 60.1 L 340 67.4 L 340 67.5 L 340.1 67.5 L 347.4 67.5 L 347.5 67.5 L 347.5 67.4 L 347.5 60.1 L 347.5 60 L 347.4 60 Z M 337.4 0 L 330.1 0 L 330 0 L 330 0.1 L 330 7.4 L 330 7.5 L 330.1 7.5 L 337.4 7.5 L 337.5 7.5 L 337.5 7.4 L 337.5 0.1 L 337.5 0 L 337.4 0 Z M 7.4 0 L 0.1 0 L 0 0 L 0 0.1 L 0 7.4 L 0 7.5 L 0.1 7.5 L 7.4 7.5 L 7.5 7.5 L 7.5 7.4 L 7.5 0.1 L 7.5 0 L 7.4 0 Z M 47.4 0 L 40.1 0 L 40 0 L 40 0.1 L 40 7.4 L 40 7.5 L 40.1 7.5 L 47.4 7.5 L 47.5 7.5 L 47.5 7.4 L 47.5 0.1 L 47.5 0 L 47.4 0 Z M 307.4 0 L 300.1 0 L 300 0 L 300 0.1 L 300 7.4 L 300 7.5 L 300.1 7.5 L 307.4 7.5 L 307.5 7.5 L 307.5 7.4 L 307.5 0.1 L 307.5 0 L 307.4 0 Z M 317.4 0 L 310.1 0 L 310 0 L 310 0.1 L 310 7.4 L 310 7.5 L 310.1 7.5 L 317.4 7.5 L 317.5 7.5 L 317.5 7.4 L 317.5 0.1 L 317.5 0 L 317.4 0 Z M 327.4 0 L 320.1 0 L 320 0 L 320 0.1 L 320 7.4 L 320 7.5 L 320.1 7.5 L 327.4 7.5 L 327.5 7.5 L 327.5 7.4 L 327.5 0.1 L 327.5 0 L 327.4 0 Z" vector-effect="non-scaling-stroke"/></g></svg>